<svg width="25" height="25" viewBox="0 0 25 25" fill="none" xmlns="http://www.w3.org/2000/svg">
<path fill-rule="evenodd" clip-rule="evenodd" d="M15.9048 6.52441C15.9048 5.97213 15.4571 5.52441 14.9048 5.52441L4.90479 5.52441C4.3525 5.52441 3.90479 5.97213 3.90479 6.52441C3.90479 7.0767 4.3525 7.52441 4.90479 7.52441L14.9048 7.52441C15.4571 7.52441 15.9048 7.0767 15.9048 6.52441Z" fill="black"/>
<path fill-rule="evenodd" clip-rule="evenodd" d="M21.9048 12.5244C21.9048 11.9721 21.4571 11.5244 20.9048 11.5244L4.90479 11.5244C4.3525 11.5244 3.90479 11.9721 3.90479 12.5244C3.90479 13.0767 4.3525 13.5244 4.90479 13.5244L20.9048 13.5244C21.4571 13.5244 21.9048 13.0767 21.9048 12.5244Z" fill="black"/>
<path fill-rule="evenodd" clip-rule="evenodd" d="M11.9048 18.5244C11.9048 17.9721 11.4571 17.5244 10.9048 17.5244H4.90479C4.3525 17.5244 3.90479 17.9721 3.90479 18.5244C3.90479 19.0767 4.3525 19.5244 4.90479 19.5244H10.9048C11.4571 19.5244 11.9048 19.0767 11.9048 18.5244Z" fill="black"/>
</svg>
