<svg width="21" height="15" viewBox="0 0 21 15" fill="none" xmlns="http://www.w3.org/2000/svg">
<path fill-rule="evenodd" clip-rule="evenodd" d="M0.291992 5.52441C0.291992 4.97213 0.739707 4.52441 1.29199 4.52441H19.292C19.8443 4.52441 20.292 4.97213 20.292 5.52441C20.292 6.0767 19.8443 6.52441 19.292 6.52441H1.29199C0.739707 6.52441 0.291992 6.0767 0.291992 5.52441Z" fill="black"/>
<path fill-rule="evenodd" clip-rule="evenodd" d="M0.291992 1.52441C0.291992 0.972129 0.739707 0.524414 1.29199 0.524414H19.292C19.8443 0.524414 20.292 0.972129 20.292 1.52441C20.292 2.0767 19.8443 2.52441 19.292 2.52441H1.29199C0.739707 2.52441 0.291992 2.0767 0.291992 1.52441Z" fill="black"/>
<path fill-rule="evenodd" clip-rule="evenodd" d="M0.291992 9.52441C0.291992 8.97213 0.739707 8.52441 1.29199 8.52441H19.292C19.8443 8.52441 20.292 8.97213 20.292 9.52441C20.292 10.0767 19.8443 10.5244 19.292 10.5244H1.29199C0.739707 10.5244 0.291992 10.0767 0.291992 9.52441Z" fill="black"/>
<path fill-rule="evenodd" clip-rule="evenodd" d="M0.291992 13.5244C0.291992 12.9721 0.739707 12.5244 1.29199 12.5244H19.292C19.8443 12.5244 20.292 12.9721 20.292 13.5244C20.292 14.0767 19.8443 14.5244 19.292 14.5244H1.29199C0.739707 14.5244 0.291992 14.0767 0.291992 13.5244Z" fill="black"/>
</svg>
