<svg width="16" height="16" viewBox="0 0 16 16" fill="none" xmlns="http://www.w3.org/2000/svg">
<g opacity="0.9" clip-path="url(#clip0)">
<path fill-rule="evenodd" clip-rule="evenodd" d="M2.78272 3.36459C2.42827 3.36459 2.13558 3.65728 2.13558 4.01172V11.7774C2.13558 12.1318 2.42827 12.4245 2.78272 12.4245H13.1369C13.4914 12.4245 13.784 12.1318 13.784 11.7774V4.01172C13.784 3.65728 13.4914 3.36459 13.1369 3.36459H2.78272ZM0.841309 4.01172C0.841309 2.94247 1.71346 2.07031 2.78272 2.07031H13.1369C14.2062 2.07031 15.0783 2.94247 15.0783 4.01172V11.7774C15.0783 12.8466 14.2062 13.7188 13.1369 13.7188H2.78272C1.71346 13.7188 0.841309 12.8466 0.841309 11.7774V4.01172Z" fill="white"/>
<path fill-rule="evenodd" clip-rule="evenodd" d="M0.958346 3.64034C1.1633 3.34754 1.56681 3.27634 1.85961 3.4813L7.95987 7.75148L14.0601 3.4813C14.3529 3.27634 14.7564 3.34754 14.9614 3.64034C15.1664 3.93314 15.0951 4.33665 14.8023 4.54161L8.33098 9.07156C8.10816 9.22754 7.81158 9.22754 7.58876 9.07156L1.11739 4.54161C0.824596 4.33665 0.753388 3.93314 0.958346 3.64034Z" fill="white"/>
</g>
<defs>
<clipPath id="clip0">
<rect width="15.5313" height="15.5313" fill="white" transform="translate(0.194336 0.128906)"/>
</clipPath>
</defs>
</svg>
