<svg width="16" height="16" viewBox="0 0 16 16" fill="none" xmlns="http://www.w3.org/2000/svg">
<path d="M13.0278 15.5287C12.963 15.5287 12.8983 15.5287 12.8336 15.5287C10.7628 15.2698 8.69195 14.558 6.94468 13.4578C5.32683 12.4224 3.90313 10.9987 2.86771 9.38088C1.70287 7.63361 0.991016 5.56277 0.796875 3.49193C0.796875 2.97422 0.926302 2.45651 1.24987 2.06823C1.57344 1.67995 2.02644 1.4211 2.54414 1.35638C2.60886 1.35638 2.67357 1.35638 2.73829 1.35638H4.6797C5.6504 1.35638 6.49168 2.06823 6.62111 3.03894C6.68582 3.62136 6.81525 4.20378 7.00939 4.72149C7.26824 5.43334 7.0741 6.20991 6.55639 6.79233L6.1034 7.24533C6.87996 8.41018 7.85067 9.44559 9.08023 10.2222L9.53322 9.76916C10.0509 9.25145 10.8922 9.05731 11.6041 9.31617C12.1218 9.51031 12.7042 9.63974 13.2866 9.70445C14.2573 9.83388 14.9692 10.6752 14.9692 11.6459V13.5873C14.9692 14.105 14.775 14.6227 14.3868 14.9463C13.9985 15.2698 13.5455 15.5287 13.0278 15.5287ZM4.6797 2.65066H2.73829C2.54414 2.65066 2.35 2.78008 2.22058 2.90951C2.15586 3.03894 2.09115 3.16837 2.09115 3.36251C2.28529 5.2392 2.93243 7.05119 3.96785 8.66903C4.93855 10.1574 6.16811 11.4517 7.65653 12.3577C9.27437 13.3931 11.0864 14.0403 12.963 14.2344C13.2219 14.2344 13.3513 14.1697 13.4808 14.0403C13.6102 13.9108 13.6749 13.7814 13.6749 13.5873V11.6459C13.6749 11.3223 13.416 11.0634 13.0925 10.9987C12.4453 10.934 11.7982 10.7399 11.1511 10.481C10.8922 10.4163 10.6334 10.4163 10.4392 10.6104L9.59794 11.4517C9.4038 11.6459 9.08023 11.7106 8.82137 11.5811C7.0741 10.6104 5.6504 9.18674 4.6797 7.43947C4.61498 7.18061 4.6797 6.85705 4.87384 6.66291L5.71512 5.82163C5.84454 5.6922 5.90926 5.36863 5.84454 5.17449C5.58569 4.52735 5.45626 3.88022 5.32683 3.23308C5.32683 2.90951 5.00327 2.65066 4.6797 2.65066ZM12.3806 7.18061C12.0571 7.18061 11.7982 6.98647 11.7335 6.66291C11.5393 5.62749 10.6981 4.85092 9.66265 4.59207C9.33908 4.52735 9.08023 4.20378 9.14494 3.8155C9.20966 3.49193 9.53322 3.23308 9.92151 3.29779C11.4746 3.62136 12.7042 4.78621 12.963 6.33934C13.0278 6.66291 12.8336 7.05119 12.4453 7.1159C12.4453 7.1159 12.4453 7.18061 12.3806 7.18061ZM14.9692 7.1159C14.6456 7.1159 14.3868 6.85705 14.322 6.53348C14.0632 4.13907 12.1865 2.26237 9.72736 1.93881C9.4038 1.87409 9.14494 1.55052 9.14494 1.22695C9.14494 0.903386 9.53322 0.644531 9.85679 0.644531C12.8983 0.9681 15.228 3.29779 15.5516 6.33934C15.6163 6.66291 15.3575 6.98647 14.9692 7.05119C15.0339 7.1159 14.9692 7.1159 14.9692 7.1159Z" fill="white"/>
</svg>
