<svg width="28" height="36" viewBox="0 0 28 36" fill="none" xmlns="http://www.w3.org/2000/svg">
<path fill-rule="evenodd" clip-rule="evenodd" d="M14.1328 35.5116C15.7897 35.5116 17.1328 34.3923 17.1328 33.0116C17.1328 31.6309 15.7897 30.5116 14.1328 30.5116C12.476 30.5116 11.1328 31.6309 11.1328 33.0116C11.1328 34.3923 12.476 35.5116 14.1328 35.5116Z" fill="#4462FE"/>
<path fill-rule="evenodd" clip-rule="evenodd" d="M14.1328 0.511597C21.3328 0.511597 27.1328 6.4116 27.1328 13.7116C27.1328 17.4116 25.1328 21.3116 19.8328 26.6116L14.1328 32.4116L8.33281 26.6116C3.13281 21.2116 1.13281 17.3116 1.13281 13.7116C1.13281 6.4116 6.93281 0.511597 14.1328 0.511597Z" fill="#4462FE" stroke="#C4C4C4"/>
<path d="M16.1348 13.2255H13.0537V15.745H16.6328V16.5116H12.1162V9.40222H16.584V10.1737H13.0537V12.4589H16.1348V13.2255Z" fill="#4462FE"/>
</svg>
