<svg width="28" height="36" viewBox="0 0 28 36" fill="none" xmlns="http://www.w3.org/2000/svg">
<path fill-rule="evenodd" clip-rule="evenodd" d="M14.1328 35.5117C15.7897 35.5117 17.1328 34.3924 17.1328 33.0117C17.1328 31.631 15.7897 30.5117 14.1328 30.5117C12.476 30.5117 11.1328 31.631 11.1328 33.0117C11.1328 34.3924 12.476 35.5117 14.1328 35.5117Z" fill="#2F2F2F"/>
<path fill-rule="evenodd" clip-rule="evenodd" d="M14.1328 0.511597C21.3328 0.511597 27.1328 6.4116 27.1328 13.7116C27.1328 17.4116 25.1328 21.3116 19.8328 26.6116L14.1328 32.4116L8.33281 26.6116C3.13281 21.2116 1.13281 17.3116 1.13281 13.7116C1.13281 6.4116 6.93281 0.511597 14.1328 0.511597Z" fill="#2F2F2F" stroke="#C4C4C4"/>
<path d="M17.5947 18.2548H16.6621V16.5116H11.5596V18.2596H10.6221L10.6172 15.745H11.1982C11.5042 15.3999 11.7467 14.9377 11.9258 14.3583C12.1081 13.7756 12.222 13.1376 12.2676 12.4442L12.4238 9.40222H16.6768V15.745H17.6045L17.5947 18.2548ZM12.2676 15.745H15.7344V10.1737H13.3271L13.2246 12.2635C13.1823 13.0806 13.0732 13.7772 12.8975 14.3534C12.7249 14.9296 12.515 15.3934 12.2676 15.745Z" fill="#2F2F2F"/>
</svg>
