<svg width="16" height="16" viewBox="0 0 16 16" fill="none" xmlns="http://www.w3.org/2000/svg">
<path fill-rule="evenodd" clip-rule="evenodd" d="M0.985352 0.127563V1.62756H2.48535L5.18535 7.32006L4.17285 9.15006C3.62535 10.1551 4.34535 11.3776 5.48535 11.3776H14.4854V9.87756H5.48535L6.31035 8.37756H11.8979C12.4604 8.37756 12.9554 8.07006 13.2104 7.60506L15.8954 2.73756C16.1729 2.24256 15.8129 1.62756 15.2429 1.62756H4.14285L3.43785 0.127563H0.985352ZM5.48535 12.1276C4.66035 12.1276 3.99285 12.8026 3.99285 13.6276C3.99285 14.4526 4.66035 15.1276 5.48535 15.1276C6.31035 15.1276 6.98535 14.4526 6.98535 13.6276C6.98535 12.8026 6.31035 12.1276 5.48535 12.1276ZM11.4928 13.6276C11.4928 12.8026 12.1603 12.1276 12.9853 12.1276C13.8103 12.1276 14.4853 12.8026 14.4853 13.6276C14.4853 14.4526 13.8103 15.1276 12.9853 15.1276C12.1603 15.1276 11.4928 14.4526 11.4928 13.6276Z" fill="#414291"/>
</svg>
