<svg width="16" height="16" viewBox="0 0 16 16" fill="none" xmlns="http://www.w3.org/2000/svg">
<path fill-rule="evenodd" clip-rule="evenodd" d="M0.98584 0.642212V2.14221H2.48584L5.18584 7.83471L4.17334 9.66471C3.62584 10.6697 4.34584 11.8922 5.48584 11.8922H14.4858V10.3922H5.48584L6.31084 8.89221H11.8983C12.4608 8.89221 12.9558 8.58471 13.2108 8.11971L15.8958 3.25221C16.1733 2.75721 15.8133 2.14221 15.2433 2.14221H4.14334L3.43834 0.642212H0.98584ZM5.48584 12.6422C4.66084 12.6422 3.99334 13.3172 3.99334 14.1422C3.99334 14.9672 4.66084 15.6422 5.48584 15.6422C6.31084 15.6422 6.98584 14.9672 6.98584 14.1422C6.98584 13.3172 6.31084 12.6422 5.48584 12.6422ZM11.4933 14.1422C11.4933 13.3172 12.1608 12.6422 12.9858 12.6422C13.8108 12.6422 14.4858 13.3172 14.4858 14.1422C14.4858 14.9672 13.8108 15.6422 12.9858 15.6422C12.1608 15.6422 11.4933 14.9672 11.4933 14.1422Z" fill="black" fill-opacity="0.54"/>
</svg>
