<svg width="19" height="19" viewBox="0 0 19 19" fill="none" xmlns="http://www.w3.org/2000/svg">
<path fill-rule="evenodd" clip-rule="evenodd" d="M14.501 4.32489C14.7939 4.61779 14.7939 5.09266 14.501 5.38555L5.50103 14.3856C5.20814 14.6784 4.73327 14.6784 4.44037 14.3856C4.14748 14.0927 4.14748 13.6178 4.44037 13.3249L13.4404 4.32489C13.7333 4.032 14.2081 4.032 14.501 4.32489Z" fill="white"/>
<path fill-rule="evenodd" clip-rule="evenodd" d="M4.44037 4.32489C4.73327 4.032 5.20814 4.032 5.50103 4.32489L14.501 13.3249C14.7939 13.6178 14.7939 14.0927 14.501 14.3856C14.2081 14.6784 13.7333 14.6784 13.4404 14.3856L4.44037 5.38555C4.14748 5.09266 4.14748 4.61779 4.44037 4.32489Z" fill="white"/>
</svg>
