<svg width="25" height="25" viewBox="0 0 25 25" fill="none" xmlns="http://www.w3.org/2000/svg">
<path fill-rule="evenodd" clip-rule="evenodd" d="M15.0752 18.0015C15.0752 18.5537 14.6275 19.0015 14.0752 19.0015L4.0752 19.0015C3.52291 19.0015 3.0752 18.5537 3.0752 18.0015C3.0752 17.4492 3.52291 17.0015 4.0752 17.0015L14.0752 17.0015C14.6275 17.0015 15.0752 17.4492 15.0752 18.0015Z" fill="white"/>
<path fill-rule="evenodd" clip-rule="evenodd" d="M21.0752 12.0015C21.0752 12.5537 20.6275 13.0015 20.0752 13.0015L4.0752 13.0015C3.52291 13.0015 3.0752 12.5537 3.0752 12.0015C3.0752 11.4492 3.52291 11.0015 4.0752 11.0015L20.0752 11.0015C20.6275 11.0015 21.0752 11.4492 21.0752 12.0015Z" fill="white"/>
<path fill-rule="evenodd" clip-rule="evenodd" d="M11.0752 6.00146C11.0752 6.55375 10.6275 7.00146 10.0752 7.00146L4.0752 7.00146C3.52291 7.00146 3.0752 6.55375 3.0752 6.00146C3.0752 5.44918 3.52291 5.00146 4.0752 5.00146L10.0752 5.00146C10.6275 5.00146 11.0752 5.44918 11.0752 6.00146Z" fill="white"/>
</svg>
