<svg width="61" height="31" viewBox="0 0 61 31" fill="none" xmlns="http://www.w3.org/2000/svg">
<path fill-rule="evenodd" clip-rule="evenodd" d="M37.6387 8.86723C38.0293 9.25776 38.0293 9.89092 37.6387 10.2814L25.6387 22.2814C25.2482 22.672 24.6151 22.672 24.2245 22.2814C23.834 21.8909 23.834 21.2578 24.2245 20.8672L36.2245 8.86723C36.6151 8.47671 37.2482 8.47671 37.6387 8.86723Z" fill="#2F2F2F"/>
<path fill-rule="evenodd" clip-rule="evenodd" d="M24.2245 8.86723C24.6151 8.47671 25.2482 8.47671 25.6387 8.86723L37.6387 20.8672C38.0293 21.2578 38.0293 21.8909 37.6387 22.2814C37.2482 22.672 36.6151 22.672 36.2245 22.2814L24.2245 10.2814C23.834 9.89092 23.834 9.25776 24.2245 8.86723Z" fill="#2F2F2F"/>
</svg>
