<svg width="32" height="24" viewBox="0 0 32 24" fill="none" xmlns="http://www.w3.org/2000/svg">
<g clip-path="url(#clip0)">
<path fill-rule="evenodd" clip-rule="evenodd" d="M5.48438 21.8287C5.48438 20.9735 6.17761 20.2803 7.03276 20.2803C7.88791 20.2803 8.58115 20.9735 8.58115 21.8287C8.58115 22.6838 7.88791 23.377 7.03276 23.377C6.17761 23.377 5.48438 22.6838 5.48438 21.8287Z" fill="#2F2F2F"/>
<path fill-rule="evenodd" clip-rule="evenodd" d="M14.001 21.8287C14.001 20.9735 14.6942 20.2803 15.5494 20.2803C16.4045 20.2803 17.0977 20.9735 17.0977 21.8287C17.0977 22.6838 16.4045 23.377 15.5494 23.377C14.6942 23.377 14.001 22.6838 14.001 21.8287Z" fill="#2F2F2F"/>
<path fill-rule="evenodd" clip-rule="evenodd" d="M0.0654297 6.34548C0.0654297 5.91791 0.412048 5.57129 0.839623 5.57129H3.9364C4.3054 5.57129 4.62312 5.83172 4.69554 6.19354L5.34576 9.44226H17.8719C18.1026 9.44226 18.3213 9.54517 18.4684 9.72294C18.6155 9.90072 18.6756 10.1348 18.6324 10.3615L17.3926 16.8628C17.2864 17.3974 16.9955 17.8777 16.5709 18.2195C16.1484 18.5596 15.6202 18.7411 15.0781 18.7326H7.56632C7.02417 18.7411 6.49604 18.5596 6.07354 18.2195C5.64911 17.8778 5.35831 17.3978 5.25201 16.8634C5.25196 16.8632 5.25205 16.8636 5.25201 16.8634L3.95869 10.4016C3.95344 10.3803 3.94908 10.3585 3.94565 10.3365L3.3018 7.11968H0.839623C0.412048 7.11968 0.0654297 6.77306 0.0654297 6.34548ZM5.65567 10.9906L6.7706 16.5611C6.80599 16.7393 6.90295 16.8994 7.04448 17.0134C7.18602 17.1273 7.36312 17.1878 7.54479 17.1843L7.55962 17.1842H15.0848L15.0996 17.1843C15.2813 17.1878 15.4584 17.1273 15.5999 17.0134C15.7408 16.8999 15.8375 16.7408 15.8733 16.5636L16.9361 10.9906H5.65567Z" fill="#2F2F2F"/>
</g>
<defs>
<clipPath id="clip0">
<rect width="31" height="23" fill="white" transform="translate(0.0654297 0.5)"/>
</clipPath>
</defs>
</svg>
