<svg width="24" height="25" viewBox="0 0 24 25" fill="none" xmlns="http://www.w3.org/2000/svg">
<path fill-rule="evenodd" clip-rule="evenodd" d="M18.7071 5.43547C19.0976 5.826 19.0976 6.45916 18.7071 6.84968L6.70711 18.8497C6.31658 19.2402 5.68342 19.2402 5.29289 18.8497C4.90237 18.4592 4.90237 17.826 5.29289 17.4355L17.2929 5.43547C17.6834 5.04495 18.3166 5.04495 18.7071 5.43547Z" fill="#2F2F2F"/>
<path fill-rule="evenodd" clip-rule="evenodd" d="M5.29289 5.43547C5.68342 5.04495 6.31658 5.04495 6.70711 5.43547L18.7071 17.4355C19.0976 17.826 19.0976 18.4592 18.7071 18.8497C18.3166 19.2402 17.6834 19.2402 17.2929 18.8497L5.29289 6.84968C4.90237 6.45916 4.90237 5.826 5.29289 5.43547Z" fill="#2F2F2F"/>
</svg>
