<svg width="126" height="24" viewBox="0 0 126 24" fill="none" xmlns="http://www.w3.org/2000/svg">
<path d="M101.276 0.426271C100.019 0.426271 99 1.45602 99 2.72627V21.1263C99 22.3965 100.019 23.4263 101.276 23.4263H125.172V18.8596H105.044C104.416 18.8596 103.906 18.3448 103.906 17.7096V6.20962C103.906 5.5745 104.416 5.05962 105.044 5.05962H125.172V0.426271H101.276Z" fill="white"/>
<path d="M125.172 9.9884H99V14.1284H125.172V9.9884Z" fill="white"/>
<path d="M35.2759 0.426271C34.0189 0.426271 33 1.45602 33 2.72627V21.1263C33 22.3965 34.0189 23.4263 35.2759 23.4263H59.1724V18.8596H39.0441C38.4157 18.8596 37.9062 18.3448 37.9062 17.7096V6.20962C37.9062 5.5745 38.4157 5.05962 39.0441 5.05962H59.1724V0.426271H35.2759Z" fill="white"/>
<path d="M92.1724 2.72627C92.1724 1.45602 91.1535 0.426271 89.8966 0.42627L68.2759 0.42627C67.0189 0.426269 66 1.45602 66 2.72627V23.4263H70.5517V6.07452C70.5517 5.43939 71.0612 4.92452 71.6897 4.92452L86.4828 4.92452C87.1112 4.92452 87.6207 5.43939 87.6207 6.07452V23.4263L92.1724 23.4263V2.72627Z" fill="white"/>
<path d="M23.8966 0.426271C25.1535 0.426271 26.1724 1.45602 26.1724 2.72627V21.1263C26.1724 22.3965 25.1535 23.4263 23.8966 23.4263H0V18.8596H20.1283C20.7567 18.8596 21.2662 18.3448 21.2662 17.7096V6.20962C21.2662 5.5745 20.7567 5.05962 20.1283 5.05962H0V0.426271H23.8966Z" fill="white"/>
<path d="M0 9.9884H26.1724V14.1284H0V9.9884Z" fill="white"/>
</svg>
