<svg width="70" height="14" viewBox="0 0 70 14" fill="none" xmlns="http://www.w3.org/2000/svg">
<path d="M56.6364 0.345582C55.9335 0.345582 55.3636 0.94144 55.3636 1.67647V12.3236C55.3636 13.0586 55.9335 13.6544 56.6364 13.6544H70V11.012H58.7437C58.3922 11.012 58.1073 10.714 58.1073 10.3465V3.6921C58.1073 3.32458 58.3922 3.02665 58.7437 3.02665H70V0.345582H56.6364Z" fill="#2D2D2D"/>
<path d="M70 5.87867H55.3636V8.27427H70V5.87867Z" fill="#2D2D2D"/>
<path d="M19.7273 0.345582C19.0244 0.345582 18.4545 0.94144 18.4545 1.67647V12.3236C18.4545 13.0586 19.0244 13.6544 19.7273 13.6544H33.0909V11.012H21.8346C21.4832 11.012 21.1982 10.714 21.1982 10.3465V3.6921C21.1982 3.32458 21.4832 3.02665 21.8346 3.02665H33.0909V0.345582H19.7273Z" fill="#2D2D2D"/>
<path d="M51.5455 1.67647C51.5455 0.94144 50.9756 0.345582 50.2727 0.345582L38.1818 0.345581C37.4789 0.345581 36.9091 0.94144 36.9091 1.67647V13.6544H39.4545V3.61392C39.4545 3.24641 39.7395 2.94848 40.0909 2.94848L48.3636 2.94848C48.7151 2.94848 49 3.24641 49 3.61392V13.6544L51.5455 13.6544V1.67647Z" fill="#2D2D2D"/>
<path d="M13.3636 0.345582C14.0665 0.345582 14.6364 0.94144 14.6364 1.67647V12.3236C14.6364 13.0586 14.0665 13.6544 13.3636 13.6544H0V11.012H11.2563C11.6078 11.012 11.8927 10.714 11.8927 10.3465V3.6921C11.8927 3.32458 11.6078 3.02665 11.2563 3.02665H0V0.345582H13.3636Z" fill="#2D2D2D"/>
<path d="M0 5.87867H14.6364V8.27427H0V5.87867Z" fill="#2D2D2D"/>
</svg>
