<svg width="62" height="12" viewBox="0 0 62 12" fill="none" xmlns="http://www.w3.org/2000/svg">
<path d="M50.1636 0.18628C49.5411 0.18628 49.0364 0.715198 49.0364 1.36765V10.8186C49.0364 11.4711 49.5411 12 50.1636 12H62V9.65439H52.0301C51.7188 9.65439 51.4665 9.38993 51.4665 9.0637V3.15684C51.4665 2.83061 51.7188 2.56616 52.0301 2.56616H62V0.18628H50.1636Z" fill="white"/>
<path d="M62 5.09777H49.0364V7.22424H62V5.09777Z" fill="white"/>
<path d="M17.4727 0.18628C16.8502 0.18628 16.3455 0.715198 16.3455 1.36765V10.8186C16.3455 11.4711 16.8502 12 17.4727 12H29.3091V9.65439H19.3392C19.0279 9.65439 18.7756 9.38993 18.7756 9.0637V3.15684C18.7756 2.83061 19.0279 2.56616 19.3392 2.56616H29.3091V0.18628H17.4727Z" fill="white"/>
<path d="M45.6545 1.36765C45.6545 0.715198 45.1498 0.18628 44.5273 0.18628L33.8182 0.186279C33.1956 0.186279 32.6909 0.715198 32.6909 1.36765V12H34.9455V3.08745C34.9455 2.76122 35.1978 2.49676 35.5091 2.49676L42.8364 2.49676C43.1476 2.49676 43.4 2.76122 43.4 3.08745V12L45.6545 12V1.36765Z" fill="white"/>
<path d="M11.8364 0.18628C12.4589 0.18628 12.9636 0.715198 12.9636 1.36765V10.8186C12.9636 11.4711 12.4589 12 11.8364 12H0V9.65439H9.96987C10.2812 9.65439 10.5335 9.38993 10.5335 9.0637V3.15684C10.5335 2.83061 10.2812 2.56616 9.96987 2.56616H0V0.18628H11.8364Z" fill="white"/>
<path d="M0 5.09777H12.9636V7.22424H0V5.09777Z" fill="white"/>
</svg>
